<?xml version="1.0" encoding="utf-8"?>
<!-- Svg Vector Icons : http://www.onlinewebfonts.com/icon -->
<!DOCTYPE svg PUBLIC "-//W3C//DTD SVG 1.1//EN" "http://www.w3.org/Graphics/SVG/1.1/DTD/svg11.dtd">
<svg version="1.1" xmlns="http://www.w3.org/2000/svg" xmlns:xlink="http://www.w3.org/1999/xlink" x="0px" y="0px" viewBox="0 0 1000 1000" enable-background="new 0 0 1000 1000" xml:space="preserve">
<metadata> Svg Vector Icons : http://www.onlinewebfonts.com/icon </metadata>
<g><g transform="translate(0.000000,505.000000) scale(0.100000,-0.100000)"><path d="M8343.5,4870c-49.9-15.4-122.7-49.9-163-76.7c-40.3-28.8-356.7-329.9-705.8-673.2l-632.9-623.3l105.5-107.4c57.5-59.5,431.5-429.6,830.5-820.9l725-711.6l642.5,642.5c354.8,352.9,665.5,679,692.4,725c67.1,111.3,82.5,316.5,34.5,464.2c-30.7,94-74.8,145.8-535.1,606.1c-542.8,544.7-583.1,573.5-796,590.7C8481.6,4891.1,8393.3,4883.4,8343.5,4870z"/><path d="M3763.3,418.3C2294.2-1041.2,1087.8-2241.9,1083.9-2251.5c-3.8-9.6,360.6-383.6,807.5-830.5l811.3-811.3l2242.1,2219.1C6178.1-452.4,7390.2,748.2,7637.6,993.7l450.7,448.8l-374,368.3c-205.2,203.3-577.3,569.6-824.7,813.2l-450.7,445L3763.3,418.3z"/><path d="M813.5-2579.5c-21.1-61.4-189.9-544.7-375.9-1076C251.5-4184.8,100-4635.5,100-4656.6c0-23,23-61.4,49.9-90.2c40.3-40.3,59.5-46,118.9-36.4c61.4,9.6,2209.5,675.1,2221,688.5c1.9,1.9-364.4,368.3-817.1,815.2l-820.9,809.4L813.5-2579.5z"/></g></g>
</svg>