<svg width="15" height="16" viewBox="0 0 15 16" fill="none" xmlns="http://www.w3.org/2000/svg">
<path d="M11.2498 4.975C11.2123 4.96875 11.1686 4.96875 11.1311 4.975C10.2686 4.94375 9.58105 4.2375 9.58105 3.3625C9.58105 2.46875 10.2998 1.75 11.1936 1.75C12.0873 1.75 12.8061 2.475 12.8061 3.3625C12.7998 4.2375 12.1123 4.94375 11.2498 4.975Z" stroke="#444849" stroke-width="1.5" stroke-linecap="round" stroke-linejoin="round"/>
<path d="M10.6062 9.52498C11.4624 9.66873 12.4062 9.51873 13.0687 9.07498C13.9499 8.48748 13.9499 7.52498 13.0687 6.93748C12.3999 6.49373 11.4437 6.34373 10.5874 6.49373" stroke="#444849" stroke-width="1.5" stroke-linecap="round" stroke-linejoin="round"/>
<path d="M3.73106 4.975C3.76856 4.96875 3.8123 4.96875 3.8498 4.975C4.7123 4.94375 5.3998 4.2375 5.3998 3.3625C5.3998 2.46875 4.68106 1.75 3.78731 1.75C2.89356 1.75 2.1748 2.475 2.1748 3.3625C2.18105 4.2375 2.86856 4.94375 3.73106 4.975Z" stroke="#444849" stroke-width="1.5" stroke-linecap="round" stroke-linejoin="round"/>
<path d="M4.3749 9.52498C3.51865 9.66873 2.5749 9.51873 1.9124 9.07498C1.03115 8.48748 1.03115 7.52498 1.9124 6.93748C2.58115 6.49373 3.5374 6.34373 4.39365 6.49373" stroke="#444849" stroke-width="1.5" stroke-linecap="round" stroke-linejoin="round"/>
<path d="M7.50029 9.6437C7.46279 9.63745 7.41904 9.63745 7.38154 9.6437C6.51904 9.61245 5.83154 8.9062 5.83154 8.0312C5.83154 7.13745 6.55029 6.4187 7.44404 6.4187C8.33779 6.4187 9.05654 7.1437 9.05654 8.0312C9.05029 8.9062 8.36279 9.6187 7.50029 9.6437Z" stroke="#444849" stroke-width="1.5" stroke-linecap="round" stroke-linejoin="round"/>
<path d="M5.68145 11.6125C4.8002 12.2 4.8002 13.1625 5.68145 13.75C6.68145 14.4187 8.31894 14.4187 9.31894 13.75C10.2002 13.1625 10.2002 12.2 9.31894 11.6125C8.32519 10.95 6.68145 10.95 5.68145 11.6125Z" stroke="#444849" stroke-width="1.5" stroke-linecap="round" stroke-linejoin="round"/>
</svg>
