<svg width="15" height="15" viewBox="0 0 15 15" fill="none" xmlns="http://www.w3.org/2000/svg">
<path d="M11.25 4.475C11.2125 4.46875 11.1687 4.46875 11.1312 4.475C10.2687 4.44375 9.58124 3.7375 9.58124 2.8625C9.58124 1.96875 10.3 1.25 11.1937 1.25C12.0875 1.25 12.8062 1.975 12.8062 2.8625C12.8 3.7375 12.1125 4.44375 11.25 4.475Z" stroke="white" stroke-width="1.5" stroke-linecap="round" stroke-linejoin="round"/>
<path d="M10.6062 9.02498C11.4625 9.16873 12.4062 9.01873 13.0687 8.57498C13.95 7.98748 13.95 7.02498 13.0687 6.43748C12.4 5.99373 11.4437 5.84373 10.5875 5.99373" stroke="white" stroke-width="1.5" stroke-linecap="round" stroke-linejoin="round"/>
<path d="M3.73124 4.475C3.76874 4.46875 3.81249 4.46875 3.84999 4.475C4.71249 4.44375 5.39999 3.7375 5.39999 2.8625C5.39999 1.96875 4.68124 1.25 3.78749 1.25C2.89374 1.25 2.17499 1.975 2.17499 2.8625C2.18124 3.7375 2.86874 4.44375 3.73124 4.475Z" stroke="white" stroke-width="1.5" stroke-linecap="round" stroke-linejoin="round"/>
<path d="M4.37499 9.02498C3.51874 9.16873 2.57499 9.01873 1.91249 8.57498C1.03124 7.98748 1.03124 7.02498 1.91249 6.43748C2.58124 5.99373 3.53749 5.84373 4.39374 5.99373" stroke="white" stroke-width="1.5" stroke-linecap="round" stroke-linejoin="round"/>
<path d="M7.50002 9.1437C7.46252 9.13745 7.41877 9.13745 7.38127 9.1437C6.51877 9.11245 5.83127 8.4062 5.83127 7.5312C5.83127 6.63745 6.55002 5.9187 7.44377 5.9187C8.33752 5.9187 9.05627 6.6437 9.05627 7.5312C9.05002 8.4062 8.36252 9.1187 7.50002 9.1437Z" stroke="white" stroke-width="1.5" stroke-linecap="round" stroke-linejoin="round"/>
<path d="M5.68126 11.1125C4.80001 11.7 4.80001 12.6625 5.68126 13.25C6.68126 13.9187 8.31876 13.9187 9.31876 13.25C10.2 12.6625 10.2 11.7 9.31876 11.1125C8.32501 10.45 6.68126 10.45 5.68126 11.1125Z" stroke="white" stroke-width="1.5" stroke-linecap="round" stroke-linejoin="round"/>
</svg>
