<svg width="15" height="15" viewBox="0 0 15 15" fill="none" xmlns="http://www.w3.org/2000/svg">
<path d="M13.125 3.73749C11.0438 3.53124 8.95 3.42499 6.8625 3.42499C5.625 3.42499 4.3875 3.48749 3.15 3.61249L1.875 3.73749" stroke="#F96E43" stroke-width="1.5" stroke-linecap="round" stroke-linejoin="round"/>
<path d="M5.3125 3.10625L5.45 2.2875C5.55 1.69375 5.625 1.25 6.68125 1.25H8.31875C9.375 1.25 9.45625 1.71875 9.55 2.29375L9.6875 3.10625" stroke="#F96E43" stroke-width="1.5" stroke-linecap="round" stroke-linejoin="round"/>
<path d="M11.7813 5.71252L11.375 12.0063C11.3063 12.9875 11.25 13.75 9.50625 13.75H5.49375C3.75 13.75 3.69375 12.9875 3.625 12.0063L3.21875 5.71252" stroke="#F96E43" stroke-width="1.5" stroke-linecap="round" stroke-linejoin="round"/>
<path d="M6.4563 10.3125H8.53755" stroke="#F96E43" stroke-width="1.5" stroke-linecap="round" stroke-linejoin="round"/>
<path d="M5.9375 7.8125H9.0625" stroke="#F96E43" stroke-width="1.5" stroke-linecap="round" stroke-linejoin="round"/>
</svg>
